# xmcd CD database file
#
# Track frame offsets:
#	150
#	35320
#	53177
#	74340
#	89765
#	107332
#	124090
#	134572
#	145045
#	169540
#	174855
#	198170
#	211435
#	234277
#	273110
#	292792
#	305142
#
# Disc length: 4265 seconds
#
# Revision: 0
# Processed by: cddbd v1.5.1PL0 Copyright (c) Steve Scherf et al.
# Submitted via: CDex 1.50beta10
#
DISCID=ec10a711
DTITLE=Stevie Ray Vaughan - We Are Called Double Trouble DISC 3 Providence, RI. 11/24/79
DYEAR=1900
DGENRE=Blues
TTITLE0=Dirty Pool
TTITLE1=I'm Cryin'
TTITLE2=So Excited -You Can Have My Husband
TTITLE3=Ti-Ni-Nee-Ni-Nu
TTITLE4=I'll Change
TTITLE5=Sugar Coated Love
TTITLE6=Natural Born Lover
TTITLE7=Hip Hip Baby
TTITLE8=Collins Shuffle
TTITLE9=Instrumental
TTITLE10=The Sky Is Crying
TTITLE11=Love Struck Baby
TTITLE12=May I Have a Talk With You
TTITLE13=Don't Lose your Good Thing Now
TTITLE14=My Baby's Gone
TTITLE15=Stang's Swang
TTITLE16=Closing Time Tune
EXTD=
EXTT0=
EXTT1=
EXTT2=
EXTT3=
EXTT4=
EXTT5=
EXTT6=
EXTT7=
EXTT8=
EXTT9=
EXTT10=
EXTT11=
EXTT12=
EXTT13=
EXTT14=
EXTT15=
EXTT16=
PLAYORDER=
